<svg id="eyziz7qjrd21" xmlns="http://www.w3.org/2000/svg" xmlns:xlink="http://www.w3.org/1999/xlink" viewBox="0 0 24 24" shape-rendering="geometricPrecision" text-rendering="geometricPrecision"><style><![CDATA[#eyziz7qjrd22_ts {animation: eyziz7qjrd22_ts__ts 1000ms linear 1 normal forwards}@keyframes eyziz7qjrd22_ts__ts { 0% {transform: translate(12.000005px,11.999743px) scale(1,1);animation-timing-function: cubic-bezier(0.390000,0.575000,0.565000,1)} 40% {transform: translate(12.000005px,11.999743px) scale(1.500000,1.500000);animation-timing-function: cubic-bezier(0.390000,0.575000,0.565000,1)} 50% {transform: translate(12.000005px,11.999743px) scale(1,1)} 100% {transform: translate(12.000005px,11.999743px) scale(1,1)} }]]></style><g id="eyziz7qjrd22_ts" transform="translate(12.000005,11.999743) scale(1,1)"><path id="eyziz7qjrd22" d="M17.660000,11.200000C17.430000,10.900000,17.150000,10.640000,16.890000,10.380000C16.220000,9.780000,15.460000,9.350000,14.820000,8.720000C13.330000,7.260000,13,4.850000,13.950000,3C13,3.230000,12.170000,3.750000,11.460000,4.320000C8.870000,6.400000,7.850000,10.070000,9.070000,13.220000C9.110000,13.320000,9.150000,13.420000,9.150000,13.550000C9.150000,13.770000,9,13.970000,8.800000,14.050000C8.570000,14.150000,8.330000,14.090000,8.140000,13.930000C8.080000,13.880000,8.040000,13.830000,8,13.760000C6.870000,12.330000,6.690000,10.280000,7.450000,8.640000C5.780000,10,4.870000,12.300000,5,14.470000C5.060000,14.970000,5.120000,15.470000,5.290000,15.970000C5.430000,16.570000,5.700000,17.170000,6,17.700000C7.080000,19.430000,8.950000,20.670000,10.960000,20.920000C13.100000,21.190000,15.390000,20.800000,17.030000,19.320000C18.860000,17.660000,19.500000,15,18.560000,12.720000L18.430000,12.460000C18.220000,12,17.660000,11.200000,17.660000,11.200000M14.500000,17.500000C14.220000,17.740000,13.760000,18,13.400000,18.100000C12.280000,18.500000,11.160000,17.940000,10.500000,17.280000C11.690000,17,12.400000,16.120000,12.610000,15.230000C12.780000,14.430000,12.460000,13.770000,12.330000,13C12.210000,12.260000,12.230000,11.630000,12.500000,10.940000C12.690000,11.320000,12.890000,11.700000,13.130000,12C13.900000,13,15.110000,13.440000,15.370000,14.800000C15.410000,14.940000,15.430000,15.080000,15.430000,15.230000C15.460000,16.050000,15.100000,16.950000,14.500000,17.500000L14.500000,17.500000Z" transform="translate(-11.989025,-11.999743)" fill="rgb(242,125,12)" fill-rule="evenodd" stroke="none" stroke-width="1"/></g></svg>